<mxfile host="app.diagrams.net" agent="Mozilla/5.0 (X11; Linux x86_64) AppleWebKit/537.36 (KHTML, like Gecko) Chrome/133.0.0.0 Safari/537.36" version="26.1.1">
  <diagram name="Page-1" id="2YBvvXClWsGukQMizWep">
    <mxGraphModel dx="2045" dy="657" grid="1" gridSize="10" guides="1" tooltips="1" connect="1" arrows="1" fold="1" page="1" pageScale="1" pageWidth="850" pageHeight="1100" math="0" shadow="0">
      <root>
        <mxCell id="0" />
        <mxCell id="1" parent="0" />
        <mxCell id="aM9ryv3xv72pqoxQDRHE-1" value="Cellcast app (fe)" style="shape=umlLifeline;whiteSpace=wrap;html=1;container=0;dropTarget=0;collapsible=0;recursiveResize=0;outlineConnect=0;portConstraint=eastwest;newEdgeStyle={&quot;curved&quot;:0,&quot;rounded&quot;:0};points=[[0,0,0,0,5],[0,1,0,0,-5],[1,0,0,0,5],[1,1,0,0,-5]];perimeter=rectanglePerimeter;targetShapes=umlLifeline;participant=label;" parent="1" vertex="1">
          <mxGeometry x="-100" y="40" width="100" height="640" as="geometry" />
        </mxCell>
        <mxCell id="aM9ryv3xv72pqoxQDRHE-2" value="" style="html=1;points=[];perimeter=orthogonalPerimeter;outlineConnect=0;targetShapes=umlLifeline;portConstraint=eastwest;newEdgeStyle={&quot;edgeStyle&quot;:&quot;elbowEdgeStyle&quot;,&quot;elbow&quot;:&quot;vertical&quot;,&quot;curved&quot;:0,&quot;rounded&quot;:0};" parent="aM9ryv3xv72pqoxQDRHE-1" vertex="1">
          <mxGeometry x="45" y="70" width="10" height="180" as="geometry" />
        </mxCell>
        <mxCell id="-oHqo2pu-d8JH4vPHe19-22" value="" style="html=1;points=[[0,0,0,0,5],[0,1,0,0,-5],[1,0,0,0,5],[1,1,0,0,-5]];perimeter=orthogonalPerimeter;outlineConnect=0;targetShapes=umlLifeline;portConstraint=eastwest;newEdgeStyle={&quot;curved&quot;:0,&quot;rounded&quot;:0};" vertex="1" parent="aM9ryv3xv72pqoxQDRHE-1">
          <mxGeometry x="45" y="320" width="10" height="200" as="geometry" />
        </mxCell>
        <mxCell id="-oHqo2pu-d8JH4vPHe19-31" value="" style="html=1;points=[[0,0,0,0,5],[0,1,0,0,-5],[1,0,0,0,5],[1,1,0,0,-5]];perimeter=orthogonalPerimeter;outlineConnect=0;targetShapes=umlLifeline;portConstraint=eastwest;newEdgeStyle={&quot;curved&quot;:0,&quot;rounded&quot;:0};" vertex="1" parent="aM9ryv3xv72pqoxQDRHE-1">
          <mxGeometry x="50" y="490" width="10" height="40" as="geometry" />
        </mxCell>
        <mxCell id="-oHqo2pu-d8JH4vPHe19-32" value="render UI" style="html=1;align=left;spacingLeft=2;endArrow=block;rounded=0;edgeStyle=orthogonalEdgeStyle;curved=0;rounded=0;" edge="1" target="-oHqo2pu-d8JH4vPHe19-31" parent="aM9ryv3xv72pqoxQDRHE-1">
          <mxGeometry relative="1" as="geometry">
            <mxPoint x="55" y="470" as="sourcePoint" />
            <Array as="points">
              <mxPoint x="85" y="500" />
            </Array>
          </mxGeometry>
        </mxCell>
        <mxCell id="aM9ryv3xv72pqoxQDRHE-5" value="Cellcast server&amp;nbsp;" style="shape=umlLifeline;perimeter=lifelinePerimeter;whiteSpace=wrap;html=1;container=0;dropTarget=0;collapsible=0;recursiveResize=0;outlineConnect=0;portConstraint=eastwest;newEdgeStyle={&quot;edgeStyle&quot;:&quot;elbowEdgeStyle&quot;,&quot;elbow&quot;:&quot;vertical&quot;,&quot;curved&quot;:0,&quot;rounded&quot;:0};" parent="1" vertex="1">
          <mxGeometry x="220" y="40" width="100" height="640" as="geometry" />
        </mxCell>
        <mxCell id="aM9ryv3xv72pqoxQDRHE-6" value="" style="html=1;points=[];perimeter=orthogonalPerimeter;outlineConnect=0;targetShapes=umlLifeline;portConstraint=eastwest;newEdgeStyle={&quot;edgeStyle&quot;:&quot;elbowEdgeStyle&quot;,&quot;elbow&quot;:&quot;vertical&quot;,&quot;curved&quot;:0,&quot;rounded&quot;:0};" parent="aM9ryv3xv72pqoxQDRHE-5" vertex="1">
          <mxGeometry x="45" y="80" width="10" height="170" as="geometry" />
        </mxCell>
        <mxCell id="-oHqo2pu-d8JH4vPHe19-3" value="" style="html=1;points=[[0,0,0,0,5],[0,1,0,0,-5],[1,0,0,0,5],[1,1,0,0,-5]];perimeter=orthogonalPerimeter;outlineConnect=0;targetShapes=umlLifeline;portConstraint=eastwest;newEdgeStyle={&quot;curved&quot;:0,&quot;rounded&quot;:0};" vertex="1" parent="aM9ryv3xv72pqoxQDRHE-5">
          <mxGeometry x="50" y="110" width="10" height="40" as="geometry" />
        </mxCell>
        <mxCell id="-oHqo2pu-d8JH4vPHe19-4" value="parse data" style="html=1;align=left;spacingLeft=2;endArrow=block;rounded=0;edgeStyle=orthogonalEdgeStyle;curved=0;rounded=0;" edge="1" target="-oHqo2pu-d8JH4vPHe19-3" parent="aM9ryv3xv72pqoxQDRHE-5">
          <mxGeometry relative="1" as="geometry">
            <mxPoint x="55" y="90" as="sourcePoint" />
            <Array as="points">
              <mxPoint x="85" y="120" />
            </Array>
          </mxGeometry>
        </mxCell>
        <mxCell id="-oHqo2pu-d8JH4vPHe19-24" value="" style="html=1;points=[[0,0,0,0,5],[0,1,0,0,-5],[1,0,0,0,5],[1,1,0,0,-5]];perimeter=orthogonalPerimeter;outlineConnect=0;targetShapes=umlLifeline;portConstraint=eastwest;newEdgeStyle={&quot;curved&quot;:0,&quot;rounded&quot;:0};" vertex="1" parent="aM9ryv3xv72pqoxQDRHE-5">
          <mxGeometry x="45" y="360" width="10" height="90" as="geometry" />
        </mxCell>
        <mxCell id="aM9ryv3xv72pqoxQDRHE-7" value="create template" style="html=1;verticalAlign=bottom;endArrow=block;edgeStyle=elbowEdgeStyle;elbow=vertical;curved=0;rounded=0;" parent="1" source="aM9ryv3xv72pqoxQDRHE-2" target="aM9ryv3xv72pqoxQDRHE-6" edge="1">
          <mxGeometry relative="1" as="geometry">
            <mxPoint x="195" y="130" as="sourcePoint" />
            <Array as="points">
              <mxPoint x="180" y="120" />
            </Array>
          </mxGeometry>
        </mxCell>
        <mxCell id="aM9ryv3xv72pqoxQDRHE-3" value="create template message" style="html=1;verticalAlign=bottom;startArrow=oval;endArrow=block;startSize=8;edgeStyle=elbowEdgeStyle;elbow=vertical;curved=0;rounded=0;exitX=1;exitY=1;exitDx=0;exitDy=0;exitPerimeter=0;" parent="1" target="aM9ryv3xv72pqoxQDRHE-2" edge="1">
          <mxGeometry relative="1" as="geometry">
            <mxPoint x="-240" y="100" as="sourcePoint" />
            <mxPoint x="-90" y="100.19999999999999" as="targetPoint" />
            <Array as="points">
              <mxPoint x="-180" y="120" />
            </Array>
          </mxGeometry>
        </mxCell>
        <mxCell id="-oHqo2pu-d8JH4vPHe19-5" value="" style="html=1;verticalAlign=bottom;endArrow=block;edgeStyle=elbowEdgeStyle;elbow=vertical;curved=0;rounded=0;" edge="1" parent="1" target="-oHqo2pu-d8JH4vPHe19-7">
          <mxGeometry x="-0.0008" relative="1" as="geometry">
            <mxPoint x="270" y="189.66" as="sourcePoint" />
            <Array as="points">
              <mxPoint x="495" y="189.66" />
            </Array>
            <mxPoint x="580" y="189.66" as="targetPoint" />
            <mxPoint as="offset" />
          </mxGeometry>
        </mxCell>
        <mxCell id="-oHqo2pu-d8JH4vPHe19-6" value="WhatsApp API (Business Management API)" style="shape=umlLifeline;perimeter=lifelinePerimeter;whiteSpace=wrap;html=1;container=0;dropTarget=0;collapsible=0;recursiveResize=0;outlineConnect=0;portConstraint=eastwest;newEdgeStyle={&quot;edgeStyle&quot;:&quot;elbowEdgeStyle&quot;,&quot;elbow&quot;:&quot;vertical&quot;,&quot;curved&quot;:0,&quot;rounded&quot;:0};" vertex="1" parent="1">
          <mxGeometry x="520" y="40" width="120" height="640" as="geometry" />
        </mxCell>
        <mxCell id="-oHqo2pu-d8JH4vPHe19-7" value="" style="html=1;points=[];perimeter=orthogonalPerimeter;outlineConnect=0;targetShapes=umlLifeline;portConstraint=eastwest;newEdgeStyle={&quot;edgeStyle&quot;:&quot;elbowEdgeStyle&quot;,&quot;elbow&quot;:&quot;vertical&quot;,&quot;curved&quot;:0,&quot;rounded&quot;:0};" vertex="1" parent="-oHqo2pu-d8JH4vPHe19-6">
          <mxGeometry x="55" y="140" width="10" height="100" as="geometry" />
        </mxCell>
        <mxCell id="-oHqo2pu-d8JH4vPHe19-26" value="" style="html=1;points=[];perimeter=orthogonalPerimeter;outlineConnect=0;targetShapes=umlLifeline;portConstraint=eastwest;newEdgeStyle={&quot;edgeStyle&quot;:&quot;elbowEdgeStyle&quot;,&quot;elbow&quot;:&quot;vertical&quot;,&quot;curved&quot;:0,&quot;rounded&quot;:0};" vertex="1" parent="-oHqo2pu-d8JH4vPHe19-6">
          <mxGeometry x="55" y="400" width="10" height="40" as="geometry" />
        </mxCell>
        <mxCell id="-oHqo2pu-d8JH4vPHe19-16" value="response data" style="html=1;verticalAlign=bottom;endArrow=open;dashed=1;endSize=8;edgeStyle=elbowEdgeStyle;elbow=vertical;curved=0;rounded=0;" edge="1" parent="1" source="-oHqo2pu-d8JH4vPHe19-6" target="aM9ryv3xv72pqoxQDRHE-5">
          <mxGeometry relative="1" as="geometry">
            <mxPoint x="340" y="240" as="targetPoint" />
            <Array as="points">
              <mxPoint x="495" y="240" />
            </Array>
            <mxPoint x="560" y="240" as="sourcePoint" />
          </mxGeometry>
        </mxCell>
        <mxCell id="-oHqo2pu-d8JH4vPHe19-17" value="create template" style="text;html=1;align=center;verticalAlign=middle;resizable=0;points=[];autosize=1;strokeColor=none;fillColor=none;" vertex="1" parent="1">
          <mxGeometry x="370" y="168" width="110" height="30" as="geometry" />
        </mxCell>
        <mxCell id="-oHqo2pu-d8JH4vPHe19-18" value="response data" style="html=1;verticalAlign=bottom;endArrow=open;dashed=1;endSize=8;edgeStyle=elbowEdgeStyle;elbow=vertical;curved=0;rounded=0;" edge="1" parent="1">
          <mxGeometry x="-0.001" relative="1" as="geometry">
            <mxPoint x="-50.33333333333326" y="289.9999999999999" as="targetPoint" />
            <Array as="points">
              <mxPoint x="205" y="290" />
            </Array>
            <mxPoint x="270" y="290" as="sourcePoint" />
            <mxPoint as="offset" />
          </mxGeometry>
        </mxCell>
        <mxCell id="-oHqo2pu-d8JH4vPHe19-19" value="" style="shape=umlLifeline;perimeter=lifelinePerimeter;whiteSpace=wrap;html=1;container=1;dropTarget=0;collapsible=0;recursiveResize=0;outlineConnect=0;portConstraint=eastwest;newEdgeStyle={&quot;curved&quot;:0,&quot;rounded&quot;:0};participant=umlActor;" vertex="1" parent="1">
          <mxGeometry x="-250" y="40" width="20" height="640" as="geometry" />
        </mxCell>
        <mxCell id="-oHqo2pu-d8JH4vPHe19-21" value="list message template" style="html=1;verticalAlign=bottom;startArrow=oval;endArrow=block;startSize=8;edgeStyle=elbowEdgeStyle;elbow=vertical;curved=0;rounded=0;exitX=1;exitY=1;exitDx=0;exitDy=0;exitPerimeter=0;" edge="1" parent="1">
          <mxGeometry relative="1" as="geometry">
            <mxPoint x="-240" y="359.91999999999996" as="sourcePoint" />
            <mxPoint x="-50" y="359.91999999999996" as="targetPoint" />
          </mxGeometry>
        </mxCell>
        <mxCell id="-oHqo2pu-d8JH4vPHe19-23" value="query list template" style="html=1;verticalAlign=bottom;endArrow=block;edgeStyle=elbowEdgeStyle;elbow=vertical;curved=0;rounded=0;" edge="1" parent="1">
          <mxGeometry relative="1" as="geometry">
            <mxPoint x="-40" y="400" as="sourcePoint" />
            <Array as="points">
              <mxPoint x="185" y="400" />
            </Array>
            <mxPoint x="270" y="400" as="targetPoint" />
          </mxGeometry>
        </mxCell>
        <mxCell id="-oHqo2pu-d8JH4vPHe19-25" value="" style="edgeStyle=elbowEdgeStyle;fontSize=12;html=1;endArrow=blockThin;endFill=1;rounded=0;entryX=0.5;entryY=0.626;entryDx=0;entryDy=0;entryPerimeter=0;" edge="1" parent="1" target="-oHqo2pu-d8JH4vPHe19-6">
          <mxGeometry width="160" relative="1" as="geometry">
            <mxPoint x="270" y="440" as="sourcePoint" />
            <mxPoint x="430" y="440" as="targetPoint" />
          </mxGeometry>
        </mxCell>
        <mxCell id="-oHqo2pu-d8JH4vPHe19-27" value="response data" style="html=1;verticalAlign=bottom;endArrow=open;dashed=1;endSize=8;edgeStyle=elbowEdgeStyle;elbow=vertical;curved=0;rounded=0;" edge="1" parent="1">
          <mxGeometry relative="1" as="geometry">
            <mxPoint x="270" y="480" as="targetPoint" />
            <Array as="points">
              <mxPoint x="495" y="480" />
            </Array>
            <mxPoint x="580" y="480" as="sourcePoint" />
          </mxGeometry>
        </mxCell>
        <mxCell id="-oHqo2pu-d8JH4vPHe19-28" value="&lt;span style=&quot;color: rgb(0, 0, 0); font-family: Helvetica; font-size: 11px; font-style: normal; font-variant-ligatures: normal; font-variant-caps: normal; font-weight: 400; letter-spacing: normal; orphans: 2; text-align: center; text-indent: 0px; text-transform: none; widows: 2; word-spacing: 0px; -webkit-text-stroke-width: 0px; white-space: nowrap; background-color: rgb(255, 255, 255); text-decoration-thickness: initial; text-decoration-style: initial; text-decoration-color: initial; display: inline !important; float: none;&quot;&gt;query list template&lt;/span&gt;" style="text;whiteSpace=wrap;html=1;" vertex="1" parent="1">
          <mxGeometry x="390" y="420" width="120" height="40" as="geometry" />
        </mxCell>
        <mxCell id="-oHqo2pu-d8JH4vPHe19-29" value="response data" style="html=1;verticalAlign=bottom;endArrow=open;dashed=1;endSize=8;edgeStyle=elbowEdgeStyle;elbow=vertical;curved=0;rounded=0;" edge="1" parent="1" target="-oHqo2pu-d8JH4vPHe19-22">
          <mxGeometry relative="1" as="geometry">
            <mxPoint x="-40" y="490" as="targetPoint" />
            <Array as="points">
              <mxPoint x="185" y="490" />
            </Array>
            <mxPoint x="270" y="490" as="sourcePoint" />
          </mxGeometry>
        </mxCell>
      </root>
    </mxGraphModel>
  </diagram>
</mxfile>
